<?xml version="1.0" encoding="UTF-8" standalone="no"?>
<!-- Created with Inkscape (http://www.inkscape.org/) -->

<svg
   width="37mm"
   height="26mm"
   viewBox="0 0 37 26"
   version="1.1"
   id="svg1"
   xml:space="preserve"
   inkscape:version="1.3.2 (091e20e, 2023-11-25, custom)"
   sodipodi:docname="logo1.svg"
   xmlns:inkscape="http://www.inkscape.org/namespaces/inkscape"
   xmlns:sodipodi="http://sodipodi.sourceforge.net/DTD/sodipodi-0.dtd"
   xmlns="http://www.w3.org/2000/svg"
   xmlns:svg="http://www.w3.org/2000/svg"><sodipodi:namedview
     id="namedview1"
     pagecolor="#ffffff"
     bordercolor="#000000"
     borderopacity="0.25"
     inkscape:showpageshadow="2"
     inkscape:pageopacity="0.0"
     inkscape:pagecheckerboard="0"
     inkscape:deskcolor="#d1d1d1"
     inkscape:document-units="mm"
     inkscape:zoom="3.9055546"
     inkscape:cx="88.975839"
     inkscape:cy="56.714096"
     inkscape:window-width="1920"
     inkscape:window-height="1046"
     inkscape:window-x="-11"
     inkscape:window-y="-11"
     inkscape:window-maximized="1"
     inkscape:current-layer="layer1" /><defs
     id="defs1" /><g
     inkscape:label="Layer 1"
     inkscape:groupmode="layer"
     id="layer1"
     transform="translate(581.35408,258.32858)"><path
       style="fill:#000000;fill-opacity:1;stroke-width:0.297593"
       d="m -563.01129,-239.31338 c -0.0561,-0.15505 -0.24921,-0.43348 -0.42919,-0.61873 -0.26427,-0.27199 -0.44092,-0.37001 -0.9178,-0.50927 -0.78994,-0.23069 -0.78747,-0.22975 -0.78678,-0.30018 3e-4,-0.0339 0.14356,-0.14316 0.31826,-0.24294 0.33452,-0.19104 0.50513,-0.47645 0.58582,-0.97998 0.0528,-0.32956 0.16847,-0.36961 0.47924,-0.16599 0.25128,0.16465 0.58454,0.72942 0.58454,0.99062 0,0.24271 0.23846,1.00604 0.31428,1.00604 0.0964,0 0.22935,-0.37689 0.32328,-0.91628 0.0769,-0.4418 0.14318,-0.58274 0.40983,-0.87202 0.43125,-0.46785 0.62379,-0.44159 0.69977,0.0954 0.0566,0.39992 0.25926,0.6608 0.77179,0.99336 0.19527,0.1267 0.19326,0.1281 -0.47774,0.33277 -0.86836,0.26487 -1.14781,0.46121 -1.4448,1.01511 -0.13315,0.24834 -0.26154,0.45207 -0.28533,0.45274 -0.0238,5.5e-4 -0.0891,-0.12563 -0.14517,-0.28068 z m 0.1223,-2.71015 c -0.0218,-0.065 -0.082,-0.31299 -0.13374,-0.55117 -0.12202,-0.56216 -0.64095,-1.89587 -0.93935,-2.41424 -0.30953,-0.5377 -0.75702,-0.75494 -2.00206,-0.97194 -1.04463,-0.18206 -1.66849,-0.43499 -1.97686,-0.80146 -0.21342,-0.25364 -0.45282,-0.68724 -0.54624,-0.9894 -0.0502,-0.16218 -0.0294,-0.17731 0.2458,-0.17889 l 0.30057,-0.002 -0.31495,-0.14386 c -0.45146,-0.2062 -0.81226,-0.61181 -0.94659,-1.06414 -0.0637,-0.21455 -0.10655,-0.39938 -0.0952,-0.41073 0.0113,-0.0113 0.26812,0.0112 0.57059,0.0502 0.96563,0.12435 0.96541,0.0753 -10e-4,-0.26857 -1.26977,-0.45171 -1.69478,-0.68223 -2.07246,-1.12409 -0.33894,-0.39652 -1.02825,-1.63786 -0.9519,-1.71421 0.0251,-0.025 0.65477,0.18501 1.39939,0.46679 2.42459,0.91753 3.13891,1.13986 3.94276,1.22717 1.89183,0.20547 2.09953,0.27276 2.7057,0.87657 0.31201,0.31079 0.73024,0.98703 0.65622,1.06105 -0.0107,0.0107 -0.31865,-0.11153 -0.6843,-0.27167 -0.54211,-0.23743 -0.76051,-0.29155 -1.18334,-0.29318 -0.44022,-0.002 -0.56606,0.0309 -0.83327,0.21612 -0.35407,0.24537 -0.65602,0.77527 -0.65602,1.15127 0,0.33065 0.19505,0.78359 0.45374,1.05367 0.26536,0.27704 0.84666,0.45081 1.50932,0.45118 0.83315,5.5e-4 1.20687,0.32505 1.47901,1.28451 l 0.12991,0.45805 0.10498,-0.41018 c 0.13426,-0.52463 0.39248,-0.98326 0.64777,-1.15053 0.13051,-0.0855 0.47062,-0.15233 0.97385,-0.19131 0.60753,-0.0471 0.84424,-0.10148 1.10427,-0.25386 1.06905,-0.62651 0.83903,-2.25407 -0.36437,-2.57811 -0.43606,-0.11742 -0.92947,-0.0292 -1.62194,0.29008 -0.32083,0.14791 -0.60323,0.24904 -0.62754,0.22472 -0.0758,-0.0758 0.30856,-0.72134 0.60913,-1.02294 0.58906,-0.59109 1.05257,-0.74922 2.53083,-0.86341 0.74846,-0.0578 1.83162,-0.3829 3.84631,-1.15436 1.70809,-0.65407 1.66829,-0.64039 1.71816,-0.59051 0.0725,0.0726 -0.425,0.99895 -0.84021,1.56439 -0.33748,0.4596 -0.45928,0.55908 -0.99921,0.81612 -0.33819,0.161 -0.95149,0.41164 -1.3629,0.55697 l -0.74801,0.26425 0.47243,-0.0435 c 0.25984,-0.024 0.58758,-0.0633 0.72833,-0.0875 0.2167,-0.0372 0.2559,-0.0203 0.2559,0.11052 0,0.50453 -0.43871,1.11384 -0.98423,1.36695 l -0.31496,0.14613 0.25591,0.002 c 0.29111,0.002 0.31776,0.0949 0.14544,0.50736 -0.16271,0.38943 -0.65483,0.89781 -1.0754,1.11092 -0.21568,0.1093 -0.75646,0.2533 -1.30113,0.34647 -1.0776,0.18433 -1.71389,0.45943 -1.97487,0.85381 -0.26332,0.39791 -0.66,1.38542 -0.9402,2.34052 -0.13974,0.47637 -0.27198,0.81298 -0.29384,0.74802 z m -4.01187,-0.0549 c -0.16061,-0.0417 -0.12546,-0.24568 0.0991,-0.575 0.0738,-0.10826 0.15715,-0.23677 0.18517,-0.28557 0.028,-0.0488 -0.16634,-0.001 -0.4319,0.10629 -0.53432,0.21583 -1.61254,0.41473 -2.25063,0.4152 -0.34605,2.5e-4 -0.41338,-0.0229 -0.41338,-0.14177 0,-0.1808 0.38587,-0.79204 0.67985,-1.0769 0.16386,-0.15879 0.18252,-0.1997 0.0682,-0.14944 -0.0866,0.0381 -0.53025,0.0692 -0.98587,0.0692 -0.80583,0 -0.84105,-0.007 -1.29263,-0.27558 -0.25532,-0.15157 -0.47784,-0.31645 -0.49449,-0.3664 -0.0181,-0.0542 0.10643,-0.11372 0.3084,-0.14754 0.18627,-0.0312 0.80184,-0.19322 1.36796,-0.36006 2.08008,-0.61304 3.12809,-0.7125 4.00937,-0.38049 0.60212,0.22684 1.24321,0.85824 1.59354,1.56944 0.32642,0.66268 0.3421,0.75429 0.12396,0.72412 -0.30803,-0.0426 -0.77288,0.13327 -1.10604,0.41845 -0.51285,0.43898 -0.97304,0.58266 -1.46059,0.45603 z m 7.22751,-0.0549 c -0.12991,-0.057 -0.38933,-0.23213 -0.57649,-0.3891 -0.35004,-0.29357 -0.87047,-0.48738 -1.12797,-0.42005 -0.21898,0.0573 -0.18321,-0.12863 0.14489,-0.753 0.89665,-1.70634 2.20672,-2.10717 4.67598,-1.43068 0.40797,0.11177 1.17559,0.31526 1.70581,0.4522 0.53023,0.13694 0.96427,0.26727 0.96454,0.28961 10e-4,0.0857 -0.76633,0.53743 -1.06453,0.62666 -0.34108,0.10206 -1.55636,0.0791 -1.80211,-0.0341 -0.0829,-0.0382 0.002,0.0872 0.18876,0.27862 0.34933,0.35814 0.65546,0.91431 0.57496,1.04457 -0.0635,0.10268 -1.45248,0.002 -2.02323,-0.14682 -0.3888,-0.1013 -0.78527,-0.2507 -1.09175,-0.41139 -0.0336,-0.0176 0.0461,0.13702 0.17716,0.34361 0.13102,0.20659 0.23821,0.41804 0.23821,0.46989 0,0.20672 -0.58691,0.25441 -0.98423,0.08 z m -3.46448,-4.56454 c -0.28834,-0.29847 -0.3756,-0.33816 -1.03244,-0.46961 -1.12162,-0.22447 -1.47413,-0.52734 -1.32348,-1.13714 0.0588,-0.23812 0.13935,-0.32788 0.42683,-0.4758 0.47881,-0.24636 0.91303,-0.20046 1.67765,0.17734 l 0.59909,0.29602 0.23651,-0.1684 c 0.30256,-0.21545 1.06176,-0.47748 1.37694,-0.47524 0.72845,0.005 1.20203,0.55421 0.96578,1.11966 -0.13373,0.32006 -0.43855,0.48289 -1.20628,0.64439 -0.76444,0.1608 -0.92059,0.23264 -1.17843,0.5421 l -0.22722,0.2727 z m -0.74718,-4.21538 c -0.56581,-0.20117 -0.9457,-0.60331 -0.9457,-1.0011 0,-0.60703 0.87297,-1.08746 1.96846,-1.08331 0.98497,0.004 1.62763,0.27967 1.9224,0.82545 0.14857,0.27506 0.14857,0.28376 0,0.5881 -0.11687,0.23942 -0.2558,0.36136 -0.61761,0.5421 -0.62002,0.30971 -1.65724,0.36709 -2.32755,0.12876 z m 1.33353,-0.5588 c 0.242,0 0.54602,-0.29427 0.49714,-0.48118 -0.0605,-0.23152 -0.52693,-0.41047 -0.94652,-0.36318 -0.53702,0.0605 -0.82912,0.43918 -0.53018,0.68728 0.14188,0.11775 0.58726,0.23192 0.73429,0.18823 0.0577,-0.0171 0.16805,-0.0312 0.24527,-0.0312 z"
       id="path3"
       inkscape:export-filename="..\..\..\webuts\logo1.svg"
       inkscape:export-xdpi="96"
       inkscape:export-ydpi="96" /></g></svg>
